<?xml version="1.0" standalone="no"?>
<!DOCTYPE svg PUBLIC "-//W3C//DTD SVG 20010904//EN"
 "http://www.w3.org/TR/2001/REC-SVG-20010904/DTD/svg10.dtd">
<svg version="1.0" xmlns="http://www.w3.org/2000/svg"
 width="1204.000000pt" height="1204.000000pt" viewBox="0 0 1204.000000 1204.000000"
 preserveAspectRatio="xMidYMid meet">
<metadata>
Created by potrace 1.11, written by Peter Selinger 2001-2013
</metadata>
<g transform="translate(0.000000,1204.000000) scale(0.100000,-0.100000)"
fill="#000000" stroke="none">
<path d="M5729 11696 c-2 -2 -55 -7 -118 -11 -62 -4 -121 -8 -130 -10 -9 -1
-50 -6 -91 -10 -41 -4 -82 -9 -91 -10 -9 -2 -40 -6 -70 -10 -30 -3 -61 -8 -69
-10 -8 -3 -35 -7 -60 -10 -40 -4 -76 -11 -170 -30 -66 -14 -117 -25 -135 -29
-296 -63 -670 -183 -965 -308 -181 -77 -443 -204 -541 -264 -31 -19 -59 -34
-62 -34 -9 0 -215 -128 -342 -213 -325 -218 -573 -422 -860 -711 -179 -180
-311 -326 -415 -461 -30 -38 -57 -72 -61 -75 -28 -24 -283 -394 -371 -540
-106 -176 -252 -455 -318 -605 -12 -27 -28 -63 -35 -80 -34 -75 -117 -292
-159 -415 -101 -292 -177 -592 -230 -910 -3 -19 -8 -44 -10 -55 -2 -11 -7 -49
-11 -85 -4 -36 -8 -67 -10 -70 -2 -3 -6 -41 -10 -85 -4 -44 -9 -91 -10 -105
-27 -247 -27 -835 0 -1070 2 -19 6 -62 10 -95 3 -33 8 -71 10 -85 2 -14 6 -47
10 -75 12 -97 40 -258 70 -395 3 -14 7 -36 10 -50 38 -199 148 -563 248 -821
208 -535 488 -1024 851 -1484 39 -49 75 -95 81 -101 5 -6 32 -38 60 -70 111
-131 366 -393 506 -519 669 -605 1493 -1049 2362 -1274 144 -38 404 -93 492
-106 23 -3 50 -7 60 -9 11 -2 45 -7 75 -11 30 -4 62 -9 70 -10 13 -2 95 -11
190 -21 138 -14 284 -19 540 -19 328 0 466 8 710 41 63 9 124 17 135 19 56 7
112 16 125 20 8 2 29 6 45 9 82 14 105 18 165 32 36 9 76 18 90 20 72 14 308
80 447 125 582 188 1151 482 1643 849 78 58 238 186 250 200 3 3 30 25 60 50
123 101 400 372 525 515 39 44 78 89 88 100 11 11 51 61 91 110 552 685 925
1443 1125 2285 26 110 36 160 57 277 3 16 11 64 19 108 8 44 17 100 20 125 3
25 8 61 10 80 3 19 7 60 10 90 3 30 8 71 10 90 27 218 27 861 1 1070 -2 14 -7
56 -11 94 -4 38 -8 79 -10 90 -5 32 -15 107 -20 151 -3 22 -8 54 -12 70 -3 17
-7 39 -9 50 -10 65 -19 107 -55 265 -61 272 -133 514 -227 765 -82 220 -240
557 -351 749 -28 49 -51 91 -51 93 0 8 -157 255 -228 358 -251 366 -588 750
-902 1025 -47 41 -87 77 -90 80 -19 21 -196 162 -300 240 -121 90 -393 274
-475 320 -482 276 -836 431 -1297 570 -75 22 -144 42 -155 45 -10 2 -65 15
-123 29 -58 15 -116 29 -130 31 -14 3 -47 9 -75 15 -75 15 -211 39 -253 45
-20 3 -48 8 -62 10 -14 3 -47 7 -75 10 -27 3 -66 7 -85 10 -19 2 -69 7 -110
10 -41 4 -93 9 -115 12 -45 6 -701 14 -706 9z m611 -230 c63 -4 131 -9 150
-11 19 -2 66 -6 103 -10 37 -3 76 -8 85 -10 9 -1 40 -6 67 -9 53 -7 118 -16
150 -22 10 -2 37 -6 60 -10 22 -3 90 -16 152 -29 61 -14 122 -26 135 -29 69
-12 481 -131 542 -156 11 -5 66 -25 121 -45 442 -161 939 -432 1340 -732 379
-283 651 -546 1004 -968 62 -75 213 -283 290 -401 118 -181 120 -182 184 -295
418 -730 655 -1516 714 -2359 15 -218 8 -694 -13 -890 -12 -111 -46 -362 -60
-435 -170 -928 -560 -1774 -1149 -2494 -147 -180 -402 -449 -556 -586 -88 -79
-173 -153 -205 -177 -16 -12 -31 -25 -34 -29 -13 -15 -296 -224 -395 -290
-362 -242 -860 -490 -1240 -617 -275 -92 -591 -175 -785 -206 -19 -3 -46 -8
-60 -11 -32 -7 -210 -33 -275 -40 -27 -3 -63 -8 -80 -10 -16 -2 -77 -7 -135
-10 -58 -4 -118 -9 -135 -11 -39 -5 -564 -6 -590 0 -11 2 -69 7 -130 11 -60 4
-121 8 -135 10 -14 2 -52 6 -85 10 -64 7 -104 13 -145 20 -14 2 -43 7 -65 10
-392 56 -887 200 -1290 375 -442 192 -847 437 -1235 745 -63 50 -140 114 -170
141 -335 301 -547 530 -787 849 -512 682 -865 1500 -1007 2340 -20 119 -25
156 -41 290 -3 28 -8 66 -10 85 -6 43 -16 173 -21 260 -5 98 -5 494 0 585 10
168 26 341 41 445 2 14 7 48 11 75 3 28 8 59 10 70 2 11 7 36 10 55 43 256
170 744 233 895 5 11 28 72 51 135 103 278 287 647 455 918 77 122 258 389
274 402 3 3 26 32 50 65 25 33 47 62 51 65 3 3 21 25 40 50 19 25 37 47 40 50
4 3 37 41 75 85 193 224 446 468 700 674 107 86 403 298 476 341 14 8 75 45
135 81 283 171 589 317 894 429 63 23 122 44 130 47 8 3 20 7 25 9 6 2 69 21
140 44 118 36 407 112 479 124 16 3 52 10 80 15 135 27 325 55 461 67 39 3 81
8 95 10 14 2 88 7 165 10 77 4 141 7 142 8 5 4 372 -2 473 -8z"/>
<path d="M4684 11251 c-40 -24 -67 -62 -110 -156 -41 -90 -54 -162 -31 -171
24 -9 45 7 101 77 38 47 63 68 93 79 23 8 46 11 50 7 4 -4 -3 -44 -14 -88 -13
-49 -20 -104 -19 -140 3 -64 -6 -83 -40 -93 -17 -5 -28 3 -55 38 -40 53 -55
62 -68 37 -23 -43 -20 -69 14 -112 32 -41 33 -43 19 -81 -7 -22 -32 -66 -55
-99 -40 -56 -42 -64 -42 -129 0 -76 18 -110 57 -110 27 0 37 8 63 45 39 56 65
153 67 251 2 60 7 97 17 111 37 52 70 84 80 77 14 -8 5 -71 -14 -93 -32 -37
-24 -91 13 -91 41 0 55 45 55 173 0 106 2 120 19 133 27 20 56 18 56 -3 0 -26
53 -134 81 -164 58 -64 98 -55 91 20 -4 37 -7 41 -31 41 -36 0 -45 8 -73 65
-43 85 -43 89 -2 128 32 30 36 37 27 62 l-9 27 -86 -91 c-47 -50 -93 -91 -102
-91 -42 0 -29 68 34 173 46 76 47 104 2 92 -34 -8 -81 -9 -89 -2 -3 4 -7 21
-9 38 -7 60 -36 73 -90 40z"/>
<path d="M5118 11030 c-42 -25 -81 -146 -54 -169 12 -10 52 -18 146 -26 36 -4
86 -8 112 -11 35 -3 61 1 98 17 58 25 76 48 57 73 -11 15 -22 16 -87 8 -76
-10 -196 -9 -207 1 -3 3 -6 25 -8 49 -1 24 -3 49 -4 56 -1 14 -29 15 -53 2z"/>
<path d="M4290 10990 c-34 -34 -22 -82 27 -108 27 -15 80 -16 88 -2 6 10 -38
74 -77 113 -17 17 -18 17 -38 -3z"/>
<path d="M7813 10860 c-57 -38 -117 -96 -195 -190 -40 -48 -67 -54 -111 -26
-21 15 -75 29 -148 40 -43 6 -97 -24 -110 -62 -7 -19 -3 -26 24 -42 39 -25
120 -50 159 -50 18 0 28 -5 28 -14 0 -14 -115 -109 -212 -174 -65 -44 -118
-96 -118 -116 0 -9 11 -22 25 -28 21 -9 35 -6 92 19 38 17 86 37 108 43 72 23
115 50 190 121 l74 71 92 -51 c51 -28 99 -51 108 -51 22 0 91 58 91 76 0 8
-10 18 -22 23 -13 5 -62 24 -110 41 -67 25 -88 37 -88 51 0 11 59 77 134 151
150 149 164 169 140 192 -28 29 -86 20 -151 -24z"/>
<path d="M4304 10725 c1 -58 5 -108 9 -111 3 -3 20 16 37 42 39 61 37 110 -6
148 -16 14 -32 26 -36 26 -4 0 -6 -47 -4 -105z"/>
<path d="M5108 10663 c-30 -19 -48 -52 -48 -88 0 -13 -5 -47 -11 -75 -9 -41
-13 -49 -24 -40 -8 7 -19 27 -25 45 -11 33 -41 56 -48 36 -8 -24 -74 -101 -87
-101 -9 0 -19 18 -26 45 -7 29 -18 46 -31 51 -24 7 -26 5 -37 -32 -5 -17 -3
-53 4 -89 7 -33 15 -80 19 -105 14 -103 65 -200 95 -181 12 8 12 20 1 83 -27
158 -24 181 25 181 31 0 41 -12 55 -65 6 -20 14 -40 19 -43 20 -12 52 33 70
100 23 85 49 157 61 168 4 5 18 6 29 2 53 -17 82 -123 75 -278 -4 -101 2 -127
23 -94 15 25 31 165 28 258 -4 123 -34 187 -107 225 -32 17 -27 17 -60 -3z"/>
<path d="M4302 10578 c-7 -9 -2 -46 19 -128 16 -63 32 -143 34 -177 3 -33 8
-76 10 -95 3 -18 7 -66 10 -107 7 -81 22 -127 61 -178 65 -85 90 -58 63 67
-10 47 -21 100 -25 119 -3 18 -8 43 -11 55 -3 11 -9 64 -12 116 -7 82 -12 104
-43 160 -20 36 -43 86 -53 112 -21 56 -38 74 -53 56z"/>
<path d="M7626 10217 c-33 -35 -33 -37 -24 -89 14 -81 67 -178 98 -178 11 0
65 69 81 103 11 23 8 32 -20 79 -36 58 -57 86 -84 107 -15 12 -21 10 -51 -22z"/>
<path d="M5847 10124 c-1 -1 -53 -5 -115 -9 -62 -3 -120 -8 -130 -9 -9 -2 -42
-7 -73 -10 -31 -4 -65 -8 -75 -10 -11 -2 -44 -7 -74 -11 -30 -4 -64 -9 -75
-12 -11 -2 -31 -6 -45 -9 -14 -2 -36 -7 -50 -10 -14 -3 -36 -8 -50 -11 -88
-16 -281 -67 -390 -103 -91 -30 -253 -90 -285 -104 -16 -8 -59 -26 -95 -41
-97 -41 -332 -161 -445 -228 -590 -353 -1075 -837 -1441 -1442 -73 -121 -204
-385 -258 -520 -27 -66 -54 -133 -61 -150 -82 -196 -197 -670 -221 -905 -2
-25 -6 -56 -9 -69 -19 -101 -27 -601 -12 -776 8 -100 36 -322 42 -345 2 -8 7
-35 10 -60 4 -24 8 -47 10 -50 2 -3 6 -26 10 -50 11 -77 81 -340 125 -470 79
-235 186 -480 306 -700 83 -152 273 -440 357 -540 7 -8 34 -42 61 -75 484
-597 1166 -1063 1906 -1303 253 -82 540 -145 765 -168 33 -3 71 -8 85 -10 132
-22 672 -22 800 0 14 3 50 7 80 10 30 3 69 8 85 10 17 3 46 7 65 10 253 35
601 131 892 247 560 222 1141 635 1534 1089 21 25 42 47 45 50 3 3 42 51 86
107 309 389 541 816 693 1274 60 183 126 442 146 576 3 21 7 45 9 53 7 25 35
259 43 360 14 185 6 660 -13 759 -2 9 -6 44 -10 76 -4 33 -9 67 -10 75 -1 8
-6 35 -9 60 -74 482 -261 993 -537 1459 -73 126 -310 457 -384 537 -243 268
-416 435 -585 565 -25 18 -47 37 -50 40 -3 3 -46 35 -96 71 -511 368 -1085
610 -1704 717 -63 11 -149 23 -190 26 -41 4 -77 8 -80 10 -17 10 -573 28 -583
19z m533 -169 c71 -8 259 -33 285 -39 11 -2 40 -7 65 -11 136 -22 310 -66 485
-121 61 -20 119 -39 130 -44 11 -4 74 -29 140 -55 291 -116 604 -290 865 -484
41 -30 77 -58 80 -61 3 -4 14 -13 26 -21 24 -16 103 -82 184 -153 144 -126
385 -391 521 -571 369 -488 630 -1094 734 -1700 2 -16 7 -39 9 -50 2 -11 7
-47 11 -80 4 -32 8 -67 10 -76 3 -15 12 -108 20 -214 6 -71 6 -450 0 -515 -3
-30 -7 -80 -10 -110 -7 -88 -16 -161 -25 -220 -19 -113 -21 -127 -36 -200 -20
-103 -42 -192 -66 -274 -11 -38 -21 -76 -23 -85 -7 -33 -84 -250 -124 -351
-50 -123 -149 -330 -217 -450 -98 -176 -305 -474 -419 -605 -15 -16 -50 -57
-78 -90 -237 -272 -586 -560 -927 -765 -170 -102 -561 -290 -603 -290 -7 0
-17 -4 -22 -9 -29 -26 -385 -129 -590 -170 -163 -32 -162 -32 -345 -57 -194
-26 -696 -25 -885 1 -81 11 -192 27 -205 30 -8 2 -55 10 -105 19 -185 34 -459
113 -655 189 -165 64 -417 183 -508 241 -23 14 -44 26 -47 26 -13 0 -266 167
-370 244 -194 145 -420 349 -570 517 -27 31 -64 71 -81 90 -81 91 -384 511
-384 533 0 2 -22 41 -48 87 -102 178 -202 395 -281 609 -63 173 -153 512 -176
661 -26 174 -35 245 -40 314 -4 44 -8 100 -11 125 -4 55 -5 451 0 500 2 19 7
75 11 123 3 49 8 98 10 110 2 12 13 80 25 151 45 281 146 648 235 851 7 17 27
64 45 105 219 507 582 1003 1005 1376 642 565 1439 905 2275 970 47 3 87 8 89
10 6 5 530 -4 591 -11z"/>
<path d="M6213 9491 c-80 -37 -139 -118 -158 -216 -14 -75 -14 -199 1 -246 36
-118 174 -188 350 -177 122 7 186 50 228 151 29 72 47 226 32 293 -17 79 -71
143 -156 182 -76 36 -234 43 -297 13z m211 -101 c40 -15 58 -61 55 -146 -2
-86 -23 -214 -38 -243 -27 -49 -107 -67 -156 -35 -38 25 -58 90 -51 168 21
242 66 304 190 256z"/>
<path d="M5510 9489 c-87 -9 -174 -44 -224 -88 -48 -42 -74 -135 -56 -200 37
-139 280 -200 419 -106 l50 33 -6 -56 c-2 -30 -9 -65 -14 -78 -13 -36 -67 -64
-121 -64 -38 0 -52 5 -76 29 l-29 30 -87 -20 c-59 -14 -84 -24 -79 -32 28 -47
55 -73 98 -93 44 -21 62 -23 147 -20 89 2 104 6 172 40 131 64 186 152 181
291 -4 152 -56 246 -165 301 -69 35 -121 43 -210 33z m80 -114 c66 -34 89
-105 53 -166 -22 -37 -69 -59 -128 -59 -38 0 -52 5 -76 29 -19 20 -30 41 -31
63 0 18 -2 40 -3 48 -7 69 111 123 185 85z"/>
<path d="M6926 9351 l-25 -48 195 -84 c168 -72 192 -85 172 -93 -13 -5 -66
-29 -118 -54 -80 -38 -108 -58 -175 -127 -77 -78 -144 -178 -127 -189 4 -2 39
-16 77 -31 68 -25 95 -27 95 -5 0 17 80 131 109 157 68 59 184 133 263 166 47
21 91 37 97 37 12 0 58 86 50 94 -4 4 -132 53 -521 199 l-67 26 -25 -48z"/>
<path d="M4756 9280 c-61 -24 -71 -32 -82 -62 -24 -71 -54 -116 -116 -174
l-63 -59 22 -48 c20 -40 26 -46 41 -38 21 11 114 105 138 139 8 12 19 22 23
22 4 0 19 -26 33 -57 119 -267 161 -358 163 -361 2 -2 39 14 84 35 l80 38 -95
220 c-52 121 -98 229 -104 240 -5 11 -19 45 -32 76 l-23 57 -69 -28z"/>
<path d="M7473 8757 c-9 -14 30 -43 112 -84 185 -93 373 -251 556 -468 115
-137 283 -358 325 -428 20 -34 42 -66 48 -72 54 -49 246 -465 263 -571 4 -26
1 -33 -16 -39 -11 -3 -49 -27 -83 -52 -149 -109 -238 -212 -302 -348 -62 -130
-80 -224 -101 -525 -17 -237 -24 -1294 -11 -1588 2 -57 3 -102 1 -100 -2 2
-19 46 -38 98 -43 119 -89 221 -118 262 l-22 31 -81 -7 c-45 -4 -131 -9 -193
-13 l-112 -5 -7 26 c-6 26 1 158 12 221 3 17 16 77 30 135 14 58 28 114 30
125 2 11 25 105 50 208 39 157 51 193 73 213 14 13 29 24 34 24 29 0 77 86 77
136 0 15 -14 49 -31 76 -32 49 -33 55 -15 136 18 83 189 609 221 681 24 53 29
58 85 79 151 59 147 111 -11 153 -142 37 -226 29 -367 -36 -41 -20 -79 -32
-82 -28 -4 5 -39 54 -78 109 -39 56 -91 118 -114 138 -42 37 -135 86 -160 86
-8 0 -19 5 -25 11 -15 15 -129 18 -172 3 -38 -13 -105 -80 -114 -114 -8 -31
25 -83 68 -107 22 -12 87 -34 145 -48 58 -15 110 -27 115 -29 33 -8 64 -22
136 -63 44 -25 79 -47 77 -48 -8 -8 -79 -55 -83 -55 -10 0 -186 -118 -258
-173 -157 -119 -222 -205 -374 -497 -340 -652 -405 -849 -398 -1210 4 -182 21
-310 60 -442 31 -106 59 -155 158 -278 134 -165 171 -270 128 -361 -39 -83
-174 -229 -212 -229 -16 0 -46 74 -68 165 -17 74 -44 192 -88 392 -6 24 -100
117 -183 180 -30 23 -113 78 -185 123 -71 45 -134 85 -139 90 -5 5 -9 38 -9
72 1 105 23 205 153 698 17 63 35 144 40 180 19 122 18 120 66 141 24 11 48
28 54 39 14 27 12 88 -5 162 l-15 64 56 180 c31 98 62 199 69 224 13 44 37
115 110 320 21 58 48 119 61 136 26 35 112 80 184 95 68 14 79 31 55 77 -28
52 -67 70 -191 89 -192 29 -317 23 -442 -22 -117 -41 -128 -43 -335 -60 -44
-4 -84 25 -133 97 -125 185 -184 234 -290 245 -88 9 -136 -40 -137 -143 -2
-90 31 -125 128 -139 66 -10 154 -41 178 -63 25 -22 47 -66 47 -93 0 -12 -10
-38 -22 -58 -20 -33 -105 -150 -118 -161 -14 -13 -101 -122 -140 -175 -25 -33
-59 -77 -77 -97 -60 -69 -292 -589 -335 -753 -35 -131 -48 -320 -29 -429 16
-91 70 -252 121 -361 23 -49 51 -109 61 -133 10 -24 46 -90 80 -148 71 -122
96 -182 115 -282 32 -166 8 -201 -139 -204 -26 0 -49 -4 -52 -8 -9 -15 -105
-3 -126 16 -11 9 -28 47 -39 83 -19 64 -21 78 -36 190 -8 62 -49 123 -104 155
-32 19 -52 21 -212 21 -122 0 -181 4 -189 12 -29 29 75 444 270 1083 5 18 22
30 62 45 48 19 54 24 59 55 3 19 5 41 4 48 -1 6 -2 23 -3 38 -1 18 -9 28 -30
35 -27 10 -28 12 -20 52 4 23 40 134 79 247 39 113 86 257 106 320 19 63 42
121 51 128 9 6 42 12 73 12 71 0 91 14 97 71 5 41 2 50 -26 81 -41 47 -61 50
-321 54 -251 3 -327 10 -357 30 -28 18 -51 61 -59 111 -7 47 -28 99 -48 119
-19 18 -114 62 -141 64 -84 8 -125 -23 -125 -95 0 -75 34 -122 117 -164 52
-26 74 -57 81 -116 l5 -44 -104 -103 c-58 -57 -129 -125 -159 -151 -103 -91
-357 -346 -397 -399 -53 -69 -131 -281 -157 -423 -3 -16 -8 -41 -11 -55 -3
-14 -8 -41 -11 -60 -4 -19 -9 -44 -11 -55 -13 -54 -12 -303 2 -360 7 -33 16
-76 19 -95 16 -107 82 -257 158 -360 71 -95 120 -132 372 -275 42 -24 46 -29
33 -42 -10 -10 -44 -16 -108 -19 -185 -10 -226 -16 -264 -39 -11 -7 -41 -20
-66 -30 -44 -16 -49 -16 -82 0 -34 16 -134 107 -189 172 -57 67 -98 132 -140
218 l-43 90 1 135 c1 154 22 266 99 540 90 321 85 290 80 515 -3 110 -7 218
-9 240 -2 22 -7 85 -10 140 -4 55 -9 123 -11 150 -2 28 -7 88 -10 135 -3 47
-8 105 -10 130 -15 151 -16 220 -1 247 43 83 155 137 292 142 86 3 142 -16
256 -89 59 -38 87 -50 104 -46 85 22 40 195 -84 327 -69 74 -114 99 -234 131
-84 23 -116 49 -104 85 4 10 35 37 69 60 169 114 225 230 183 378 -26 89 -55
127 -131 178 -107 70 -286 94 -285 38 0 -9 14 -41 30 -71 64 -118 73 -143 73
-210 0 -49 -6 -79 -25 -120 -31 -66 -61 -98 -175 -187 -49 -37 -93 -72 -99
-78 -6 -5 -52 -48 -102 -94 -104 -95 -143 -150 -168 -236 -25 -87 -24 -261 1
-440 3 -16 7 -55 10 -85 3 -30 7 -66 10 -80 26 -148 27 -947 1 -1110 -3 -14
-7 -52 -11 -85 -3 -33 -8 -67 -10 -75 -2 -8 -6 -33 -10 -55 -3 -22 -7 -47 -10
-55 -2 -8 -6 -33 -10 -55 -3 -22 -7 -47 -10 -55 -2 -8 -6 -35 -9 -60 -3 -25
-9 -56 -12 -70 -13 -53 -13 -305 0 -370 42 -201 139 -384 359 -675 104 -137
230 -294 282 -351 6 -6 35 -39 65 -75 48 -55 94 -108 150 -170 8 -9 39 -42 68
-73 58 -63 57 -56 17 -161 -44 -113 -42 -131 15 -155 48 -20 73 0 121 94 22
45 42 82 44 84 2 2 25 -12 52 -31 130 -94 451 -262 607 -318 128 -47 254 -77
346 -83 178 -13 207 -16 267 -27 91 -16 93 -22 55 -138 -18 -53 -32 -104 -32
-113 0 -17 56 -48 87 -48 43 1 67 43 98 170 29 121 15 113 173 103 75 -4 402
-8 725 -7 l589 1 -6 -31 c-3 -17 -13 -54 -22 -83 -20 -63 -13 -102 19 -104
101 -7 128 20 152 153 9 52 20 100 24 107 4 6 21 14 37 17 16 3 56 11 89 19
33 8 76 17 95 21 59 11 396 154 410 173 3 4 46 29 95 55 221 118 352 222 570
446 113 117 140 144 161 161 49 40 215 225 256 286 98 146 168 307 242 553 54
180 64 237 59 323 -4 80 -37 236 -69 329 -23 67 -152 503 -159 538 -2 8 -17
68 -35 134 -17 65 -34 130 -36 145 -3 14 -12 53 -20 86 -30 116 -43 211 -41
310 2 90 5 105 32 153 50 91 75 101 155 62 82 -38 100 -160 74 -505 -5 -60 -8
-160 -8 -220 1 -159 27 -194 81 -112 59 88 91 187 118 372 3 22 8 92 10 155 9
199 31 349 70 467 34 99 35 108 20 203 -24 155 -84 342 -153 474 -51 99 -202
297 -417 546 -134 156 -148 171 -175 194 -14 12 -53 48 -87 81 -191 186 -285
268 -405 352 -162 114 -301 180 -463 223 -78 20 -103 21 -112 7z m-1090 -1789
c68 -36 64 -111 -23 -374 -27 -83 -72 -238 -100 -345 -56 -216 -94 -337 -114
-364 -31 -43 -220 -11 -300 50 -75 57 -208 330 -222 453 -14 137 61 275 220
401 76 61 156 99 316 150 131 41 187 49 223 29z m1615 -59 c22 -34 15 -97 -18
-194 -17 -49 -33 -97 -35 -105 -3 -8 -16 -53 -30 -100 -25 -81 -59 -217 -69
-270 -12 -71 -49 -208 -65 -245 -15 -34 -27 -45 -56 -55 -124 -41 -280 92
-303 258 -10 79 -7 215 6 252 44 126 241 327 436 444 69 42 115 47 134 15z
m813 -28 c14 -3 29 -59 25 -93 -10 -73 -58 -143 -143 -205 -70 -52 -109 -104
-130 -172 -17 -56 -38 -91 -55 -91 -28 0 -42 136 -21 198 7 23 36 79 64 124
119 195 184 255 260 239z m-3927 -172 c-1 -57 -26 -152 -70 -270 -13 -36 -26
-74 -29 -85 -2 -10 -26 -86 -53 -169 -28 -82 -53 -173 -56 -202 -9 -78 -21
-101 -63 -119 -46 -19 -144 -15 -190 9 -51 27 -109 91 -156 174 -24 43 -59
101 -77 130 -50 80 -49 140 5 258 39 86 79 129 176 194 135 88 299 139 444
137 l70 -1 -1 -56z m-817 -706 c21 -21 66 -73 100 -115 73 -90 148 -153 201
-168 20 -5 76 -10 123 -10 l87 0 -14 -64 c-7 -34 -15 -74 -18 -87 -13 -62 -77
-283 -106 -364 -27 -78 -81 -260 -95 -320 -15 -67 -38 -140 -54 -168 -15 -26
-23 -31 -47 -29 -82 9 -266 170 -342 300 -122 207 -154 420 -108 716 3 17 8
60 11 96 4 36 13 89 21 118 14 48 20 56 76 92 80 52 114 53 165 3z m1391 -10
c22 -16 77 -62 123 -103 177 -162 185 -166 349 -175 47 -3 94 -7 104 -8 18 -3
34 -29 31 -52 -1 -5 -5 -38 -9 -72 -4 -35 -8 -65 -8 -68 1 -2 -4 -19 -9 -37
-5 -18 -12 -55 -15 -82 -3 -28 -7 -53 -9 -56 -2 -3 -6 -25 -10 -50 -17 -112
-91 -417 -122 -497 -16 -44 -20 -47 -63 -43 -83 7 -288 174 -372 304 -56 86
-134 254 -159 339 -55 191 -6 549 83 611 30 22 39 20 86 -11z m1777 -23 c4 -6
28 -21 54 -35 27 -13 85 -51 131 -83 45 -33 108 -70 138 -82 49 -21 60 -22
100 -11 25 6 46 10 48 9 1 -2 -1 -23 -6 -48 -5 -25 -11 -70 -15 -100 -3 -30
-8 -62 -11 -71 -3 -10 -6 -30 -9 -45 -2 -16 -9 -54 -15 -84 -6 -30 -13 -66
-16 -80 -2 -14 -7 -31 -9 -38 -2 -7 -7 -34 -10 -60 -22 -173 -48 -310 -67
-359 -20 -49 -28 -58 -62 -70 -76 -26 -244 -13 -330 26 -77 34 -150 139 -173
251 -15 72 -7 195 21 345 42 217 131 501 172 546 17 19 44 13 59 -11z m1409
-484 c23 -73 63 -230 72 -281 1 -11 11 -63 20 -115 23 -130 23 -486 -1 -625
-3 -16 -10 -53 -15 -81 -5 -29 -23 -88 -40 -132 -56 -145 -257 -417 -347 -469
-39 -23 -43 -23 -49 -8 -8 20 21 83 76 166 35 53 110 192 131 244 4 11 17 40
28 65 23 54 58 184 69 255 8 59 8 404 -1 780 -4 149 -4 281 0 294 6 22 7 23
19 6 7 -9 24 -54 38 -99z m-584 -854 c76 -92 178 -392 163 -485 -12 -79 -95
-276 -149 -354 -53 -76 -268 -246 -404 -320 -31 -16 -103 -47 -160 -68 -190
-68 -203 -63 -199 79 3 96 4 100 45 241 14 49 27 96 29 105 2 8 21 87 43 175
22 88 52 212 67 275 31 130 68 231 101 275 35 47 142 85 294 104 104 13 141 7
170 -27z m-686 -56 c16 -8 33 -21 37 -28 14 -21 10 -78 -10 -174 -10 -49 -22
-110 -25 -136 -9 -57 -74 -148 -107 -148 -31 0 -74 52 -122 148 -38 78 -42 92
-42 162 0 68 3 80 28 113 16 21 39 45 53 54 53 34 132 38 188 9z m-1626 -103
c34 -25 63 -51 63 -59 1 -8 2 -20 3 -26 1 -7 -4 -32 -11 -55 -6 -24 -15 -69
-18 -100 -14 -126 -32 -177 -64 -186 -39 -10 -64 60 -75 209 -2 28 -9 77 -16
108 -11 52 -8 146 6 167 7 11 32 -2 112 -58z m-1118 -32 c19 -4 38 -8 43 -9 4
-1 13 -2 21 -2 56 0 165 -268 166 -408 0 -54 -16 -85 -106 -202 -140 -184
-280 -304 -341 -294 -7 1 -19 2 -26 3 -7 0 -28 16 -46 33 -18 18 -70 51 -115
74 -66 33 -82 45 -84 66 -3 28 29 145 86 313 l37 110 73 -3 c59 -3 77 0 93 14
28 26 24 54 -26 161 -25 53 -45 104 -45 115 0 34 54 49 150 43 47 -3 101 -9
120 -14z m1480 -124 c147 -91 171 -109 194 -145 28 -42 43 -92 51 -172 9 -85
32 -155 93 -280 68 -141 70 -168 18 -239 -45 -60 -140 -149 -216 -200 -50 -34
-156 -72 -235 -86 -16 -2 -52 -9 -78 -14 -27 -5 -83 -9 -125 -9 -69 0 -80 2
-111 27 -43 35 -62 102 -49 175 5 28 26 105 48 171 53 163 141 444 146 469 3
12 7 32 10 46 44 211 67 274 108 294 40 19 66 13 146 -37z m-2200 -91 c213
-26 214 -26 207 -81 -8 -55 -57 -226 -77 -264 -10 -21 -26 -41 -35 -45 -39
-15 -155 56 -221 135 -33 39 -114 196 -114 220 0 5 14 18 30 28 31 18 95 21
210 7z m1353 -297 c94 -40 156 -72 203 -104 21 -14 53 -33 70 -41 65 -31 68
-106 15 -292 -41 -140 -65 -188 -102 -201 -39 -13 -70 -1 -102 41 -24 31 -66
123 -82 178 -4 14 -38 105 -76 203 -74 189 -75 198 -27 231 12 9 24 16 26 16
2 0 36 -14 75 -31z m1996 -86 c13 -26 8 -65 -27 -188 -18 -61 -45 -157 -61
-215 -52 -185 -72 -215 -144 -213 -61 2 -153 40 -198 80 -46 41 -68 104 -64
176 4 57 34 106 90 145 21 15 104 73 183 130 114 81 151 102 177 102 22 0 38
-6 44 -17z m-2272 -137 c10 -13 34 -68 53 -122 18 -55 41 -110 50 -124 24 -36
60 -117 60 -135 0 -9 -14 -22 -31 -29 -32 -13 -63 -13 -179 4 -36 5 -90 12
-120 15 -116 13 -134 61 -71 191 38 80 101 155 166 202 39 27 49 27 72 -2z
m1627 -372 c20 -19 20 -54 1 -99 -16 -39 -70 -69 -145 -80 -55 -8 -80 1 -80
30 0 29 70 119 113 146 39 23 90 25 111 3z"/>
<path d="M2160 9543 c-28 -25 -37 -49 -39 -104 -1 -26 -54 -86 -126 -143 -36
-29 -79 -69 -96 -89 -17 -20 -38 -37 -48 -37 -25 0 -54 -55 -46 -89 16 -73
166 -253 386 -462 201 -191 209 -198 250 -200 85 -5 80 12 -43 135 -57 56
-120 123 -141 149 -21 25 -43 52 -50 59 -58 60 -171 194 -192 229 -37 57 -35
79 12 141 21 29 66 96 99 148 85 136 122 163 197 141 56 -17 94 -48 343 -287
35 -33 56 -63 65 -92 11 -40 11 -44 -8 -57 -32 -22 -35 -64 -7 -92 13 -12 30
-23 37 -23 8 0 27 -6 42 -14 41 -21 58 -10 52 33 -13 78 -49 190 -84 259 -42
84 -151 194 -310 313 -147 110 -234 134 -293 82z"/>
<path d="M9984 9492 c-32 -21 -85 -62 -116 -91 -67 -61 -87 -63 -106 -6 -15
47 -13 45 -45 50 -18 4 -39 -5 -74 -32 -26 -20 -72 -51 -102 -67 -65 -37 -81
-57 -61 -81 17 -20 81 -15 129 9 l28 15 170 -167 c224 -221 274 -288 228 -306
-8 -3 -15 -12 -15 -20 0 -18 94 -86 119 -86 29 0 81 21 81 32 0 22 -53 119
-74 136 -12 9 -50 48 -85 87 -55 60 -60 70 -44 76 43 18 84 10 114 -22 23 -24
32 -29 43 -20 7 6 49 11 97 10 95 -1 129 9 151 43 44 68 21 107 -94 163 -74
36 -83 43 -80 65 2 22 -4 28 -34 39 -32 12 -35 16 -33 46 5 47 -13 65 -56 55
-19 -4 -36 -6 -39 -3 -6 6 -46 -16 -45 -25 4 -22 -5 -32 -38 -42 -34 -11 -112
-82 -113 -102 0 -15 40 -7 113 22 94 37 130 39 125 8 -2 -17 -9 -22 -26 -20
-40 6 -129 -26 -152 -55 -33 -42 -10 -56 99 -61 86 -4 92 -3 121 22 40 33 55
33 113 -4 53 -34 58 -46 21 -60 -39 -15 -52 -12 -56 13 -4 26 -28 30 -78 9
-47 -19 -94 -30 -162 -36 l-58 -6 -74 89 c-50 60 -73 96 -70 108 5 18 65 63
83 63 5 0 11 4 13 8 2 5 43 30 91 56 89 48 124 83 113 111 -10 26 -60 17 -122
-23z"/>
<path d="M2176 9150 c-36 -40 -46 -79 -27 -108 12 -19 84 12 116 49 25 31 24
49 -3 82 -23 27 -46 21 -86 -23z"/>
<path d="M9620 9093 c-8 -2 -26 -18 -39 -34 l-24 -30 59 -55 c34 -31 68 -54
81 -54 37 0 38 -21 4 -52 -47 -42 -75 -37 -137 25 -84 84 -91 89 -134 97 -31
6 -43 4 -47 -6 -8 -21 27 -90 56 -107 14 -8 51 -38 81 -65 47 -43 53 -53 44
-69 -28 -47 -130 -78 -189 -57 -44 15 -93 59 -102 91 -8 33 -24 17 -53 -53
l-23 -57 25 -22 c23 -20 62 -31 178 -50 62 -11 116 4 169 45 l48 38 52 -52
c55 -56 83 -64 107 -31 19 25 9 52 -34 97 -31 33 -35 41 -26 64 9 25 12 27 84
28 69 1 75 3 89 27 19 35 8 70 -29 93 -17 10 -46 34 -63 54 -80 91 -143 147
-159 141 -2 -1 -10 -3 -18 -6z"/>
<path d="M2508 9055 c-5 -5 -113 -27 -136 -28 -7 0 -26 -19 -42 -41 -15 -23
-37 -52 -49 -65 -30 -34 -27 -81 7 -113 54 -52 119 -62 157 -23 33 32 31 57
-5 79 -54 31 -19 42 62 20 37 -11 70 114 42 155 -15 21 -26 26 -36 16z"/>
<path d="M10399 6118 c0 -24 -2 -51 -4 -60 -2 -9 -5 -51 -7 -94 -2 -55 1 -78
10 -81 7 -3 12 5 12 20 0 28 28 57 56 57 28 0 99 -45 214 -133 93 -72 100 -80
83 -92 -35 -24 -312 -165 -325 -165 -18 0 -48 52 -48 81 0 14 -4 19 -9 13 -8
-8 -12 -40 -27 -239 -3 -44 -8 -83 -11 -87 -2 -5 3 -8 11 -8 9 0 16 8 16 18 1
41 52 78 296 216 158 89 175 96 213 91 97 -12 118 -15 163 -19 82 -9 93 -20
88 -91 -4 -61 19 -10 24 55 12 130 17 186 22 224 7 48 -17 46 -27 -3 -13 -65
-30 -69 -212 -57 l-109 7 -154 115 c-180 133 -221 173 -237 232 -6 23 -17 42
-24 42 -8 0 -13 -15 -14 -42z"/>
<path d="M1420 6132 c-22 -8 -8 -20 29 -26 50 -8 88 -46 97 -99 12 -72 12
-137 0 -138 -6 -1 -22 -2 -36 -3 -14 -2 -68 -6 -120 -10 -52 -4 -115 -9 -140
-11 -25 -2 -76 -7 -115 -10 -38 -3 -99 -7 -135 -10 -131 -11 -161 7 -169 98
-1 5 -6 5 -11 2 -6 -4 -8 -9 -6 -13 3 -5 18 -240 19 -309 0 -7 6 -13 14 -13 9
0 13 14 13 43 0 70 5 72 155 82 55 3 116 8 135 10 19 3 69 7 110 10 95 6 191
14 253 20 32 3 47 1 48 -8 3 -27 9 -84 13 -114 4 -38 -25 -107 -50 -117 -11
-4 -30 -10 -44 -13 -31 -5 -34 -9 -27 -26 4 -12 15 -13 49 -7 24 5 61 11 83
14 43 7 53 17 50 49 -2 12 -6 67 -10 122 -4 55 -9 120 -11 145 -3 48 -13 181
-19 269 -2 29 -7 56 -10 59 -6 6 -148 9 -165 4z"/>
<path d="M1259 5176 c-130 -43 -208 -109 -257 -215 -23 -49 -26 -70 -26 -161
-1 -99 1 -109 32 -172 64 -131 208 -217 364 -218 51 0 159 35 233 76 70 40
131 107 156 172 20 53 23 68 32 131 11 75 -37 210 -96 273 -41 43 -124 97
-184 120 -60 23 -174 20 -254 -6z m332 -116 c114 -27 188 -183 141 -301 -41
-105 -238 -208 -432 -225 -111 -10 -217 42 -262 130 -27 52 -30 157 -6 201 53
96 180 174 308 190 30 4 73 10 95 14 48 8 94 5 156 -9z"/>
<path d="M10294 5139 c-2 -5 -41 -140 -85 -301 -43 -161 -82 -300 -85 -310 -4
-13 11 -21 73 -42 90 -30 103 -31 103 -11 0 8 -6 15 -13 15 -7 0 -28 13 -46
28 -27 22 -34 36 -37 72 -2 35 19 151 31 168 2 2 437 -112 565 -149 36 -10 76
-28 88 -40 20 -18 22 -27 16 -65 -5 -35 -3 -44 8 -44 14 0 19 16 43 125 2 11
8 35 14 53 5 18 9 33 9 35 -1 1 5 26 12 55 14 59 7 80 -12 36 -17 -42 -38 -64
-60 -64 -10 0 -103 23 -206 51 -103 27 -196 52 -207 54 -41 9 -228 65 -232 69
-8 8 18 108 38 147 14 28 29 40 63 52 25 9 55 13 67 10 16 -4 20 -2 17 8 -5
16 -156 60 -164 48z"/>
<path d="M1925 4350 c8 -27 9 -90 1 -127 -6 -28 -26 -40 -273 -163 -303 -152
-330 -159 -369 -102 -12 18 -25 28 -29 23 -8 -14 114 -253 125 -246 6 3 5 16
0 31 -25 66 -13 85 94 144 47 26 354 182 378 192 19 8 17 -2 -25 -95 -84 -186
-277 -635 -277 -645 0 -7 2 -12 5 -12 3 0 145 70 315 156 171 85 324 159 341
164 27 8 35 6 59 -18 14 -15 29 -34 32 -42 3 -8 8 -12 12 -9 5 5 -80 194 -111
248 -1 1 -6 0 -12 -3 -6 -4 -4 -16 5 -34 21 -40 17 -57 -18 -87 -26 -22 -436
-235 -453 -235 -4 0 12 40 53 130 11 25 72 163 135 307 l116 262 -47 90 c-43
83 -72 120 -57 71z"/>
<path d="M9952 4164 c-40 -81 -71 -148 -68 -151 8 -8 26 7 26 22 0 7 14 23 30
35 l30 21 295 -146 c201 -99 300 -153 311 -170 15 -24 15 -39 -1 -92 -4 -13
-3 -23 1 -23 11 0 165 296 158 303 -3 3 -23 -12 -44 -33 -34 -34 -43 -38 -67
-31 -32 10 -461 227 -541 274 -56 33 -71 61 -53 95 6 12 11 25 11 31 0 31 -22
-3 -88 -135z"/>
<path d="M9690 3726 c0 -3 4 -16 10 -31 8 -22 6 -29 -16 -48 -138 -119 -175
-179 -168 -271 9 -119 91 -192 208 -184 49 3 90 17 211 73 182 83 225 88 281
34 30 -29 34 -39 34 -85 0 -136 -159 -236 -300 -189 -28 9 -53 15 -55 13 -2
-2 44 -41 103 -86 99 -75 141 -92 111 -44 -16 26 6 62 59 96 80 50 137 140
147 232 4 42 1 59 -22 104 -41 79 -87 112 -160 114 -85 2 -122 -8 -240 -65
-127 -61 -165 -75 -219 -78 -35 -2 -46 2 -68 26 -14 15 -29 42 -32 59 -26 138
151 245 297 178 41 -18 60 -14 41 9 -13 15 -207 147 -216 147 -3 0 -6 -2 -6
-4z"/>
<path d="M2274 3288 c-223 -75 -342 -311 -264 -522 40 -105 162 -239 264 -289
l57 -28 72 57 c40 32 74 61 77 64 3 4 27 23 53 43 47 36 90 47 102 27 10 -16
45 -32 45 -21 0 6 -43 62 -96 126 -65 79 -100 113 -107 106 -6 -6 -4 -15 7
-26 9 -9 16 -31 16 -49 0 -36 -12 -51 -106 -132 -32 -29 -72 -64 -87 -78 l-29
-27 -46 27 c-84 49 -111 76 -133 133 -27 74 -33 121 -20 181 41 193 239 351
431 345 80 -2 134 -28 184 -86 73 -86 89 -185 47 -283 -37 -85 -21 -82 77 12
89 87 103 113 48 92 -21 -8 -28 -6 -41 13 -8 12 -15 27 -15 34 0 7 -10 32 -22
55 -62 121 -171 217 -272 238 -75 15 -175 10 -242 -12z"/>
<path d="M9080 2916 c-36 -24 -81 -59 -102 -77 -129 -120 -228 -215 -228 -221
0 -15 19 -8 46 17 45 42 62 34 175 -83 389 -402 368 -378 364 -413 -3 -18 -14
-43 -26 -56 -13 -12 -19 -26 -16 -30 4 -3 62 49 129 115 67 67 118 125 114
129 -4 5 -13 0 -20 -9 -21 -28 -58 -38 -91 -23 -32 14 -234 215 -216 215 5 0
21 11 35 25 13 13 33 23 43 21 10 -2 54 -9 98 -16 110 -16 117 -17 228 -36
110 -18 92 -24 195 65 69 61 70 82 2 49 -47 -23 -128 -29 -200 -15 -19 4 -47
10 -62 13 -15 3 -39 7 -55 9 -94 12 -155 26 -151 33 47 88 59 125 53 162 -16
96 -101 170 -195 170 -49 0 -63 -5 -120 -44z m138 -87 c97 -71 100 -177 9
-281 -18 -21 -37 -38 -42 -38 -15 0 -75 58 -145 140 -36 41 -68 77 -72 78 -14
7 -8 21 24 58 73 83 152 98 226 43z"/>
<path d="M3180 2672 c0 -5 13 -21 29 -36 31 -30 34 -61 10 -95 -8 -11 -88
-111 -179 -223 -91 -112 -175 -217 -188 -234 -13 -20 -34 -34 -54 -38 -39 -8
-49 5 -37 48 14 48 11 81 -9 99 -27 25 -58 21 -82 -10 -62 -79 45 -191 176
-184 11 1 48 18 80 39 44 29 97 84 209 218 83 98 158 191 167 205 22 35 64 43
104 18 35 -21 44 -23 44 -10 0 10 -250 211 -262 211 -5 0 -8 -4 -8 -8z"/>
<path d="M8420 2407 c-52 -34 -164 -107 -247 -161 -84 -54 -153 -102 -153
-106 0 -17 14 -17 44 1 23 13 40 17 55 11 13 -4 94 -117 205 -286 169 -254
184 -281 175 -305 -6 -14 -22 -36 -37 -48 -15 -11 -24 -24 -21 -28 5 -4 390
234 516 319 1 1 -10 47 -25 103 -16 60 -31 99 -37 95 -6 -4 -10 -42 -11 -85
-1 -74 -2 -79 -35 -113 -47 -48 -177 -136 -214 -144 -29 -6 -32 -2 -89 85 -33
49 -62 92 -65 95 -13 11 -51 70 -51 78 0 5 25 26 56 48 30 21 62 45 69 52 48
44 123 44 156 1 9 -12 21 -19 28 -15 8 5 8 11 0 19 -6 7 -37 56 -70 110 -57
91 -91 126 -74 75 20 -64 18 -89 -11 -119 -30 -31 -163 -119 -180 -119 -5 0
-30 30 -54 68 -24 37 -61 93 -82 125 -21 32 -38 60 -38 63 0 7 203 136 237
150 36 15 75 4 126 -36 15 -12 30 -20 32 -18 6 6 -87 141 -100 145 -5 1 -53
-25 -105 -60z"/>
<path d="M3635 2335 c37 -27 45 -36 51 -61 6 -25 -16 -91 -41 -124 -7 -8 -74
-118 -150 -245 -76 -126 -143 -233 -148 -236 -11 -8 -76 8 -94 23 -9 8 -13 6
-13 -4 0 -8 15 -22 33 -31 17 -9 66 -38 107 -65 153 -97 150 -96 150 -75 0 10
-14 27 -30 38 -17 11 -33 28 -36 38 -7 21 -8 19 156 297 204 348 191 333 255
300 48 -25 55 -6 8 23 -83 51 -242 137 -254 137 -9 -1 -7 -6 6 -15z"/>
<path d="M7762 2013 c-56 -19 -100 -38 -97 -43 2 -4 23 -10 46 -13 23 -3 46
-11 51 -19 5 -7 7 -79 4 -163 -11 -300 -18 -420 -23 -425 -2 -3 -14 6 -25 20
-11 14 -41 48 -67 76 -25 28 -86 95 -136 149 -49 54 -97 106 -105 114 -68 72
-77 112 -30 139 16 9 30 22 30 29 0 11 -53 -6 -242 -77 -72 -27 -81 -40 -26
-36 40 3 98 -15 98 -32 0 -4 19 -27 43 -53 23 -25 85 -92 137 -150 52 -57 108
-118 125 -135 65 -68 190 -208 198 -220 11 -20 37 -17 38 4 1 9 2 31 4 47 2
17 6 80 9 140 3 61 8 135 10 165 3 30 8 100 11 155 17 290 18 295 50 325 27
26 32 40 13 39 -7 0 -59 -16 -116 -36z"/>
<path d="M4566 1871 c-4 -5 9 -14 28 -21 19 -6 40 -18 47 -26 18 -21 14 -89
-9 -174 -71 -258 -81 -305 -87 -385 -7 -106 49 -191 160 -244 211 -102 373
-37 438 176 15 48 29 98 31 110 8 39 75 288 85 315 13 35 46 51 87 45 47 -8
53 10 7 22 -146 38 -238 59 -242 55 -5 -5 -7 -3 44 -29 32 -16 41 -26 43 -50
4 -42 -100 -459 -132 -528 -27 -60 -44 -73 -116 -92 -78 -21 -183 -4 -228 37
-14 12 -32 28 -39 35 -40 36 -37 152 8 318 16 61 41 156 56 212 32 123 50 147
104 140 82 -11 33 11 -103 47 -79 20 -150 39 -160 42 -9 3 -19 0 -22 -5z"/>
<path d="M6767 1730 c-43 -10 -80 -18 -82 -18 -35 -2 -145 -27 -145 -34 0 -4
19 -8 43 -8 24 0 51 -6 61 -13 14 -10 32 -84 78 -313 32 -164 60 -316 61 -338
1 -40 -20 -66 -54 -66 -9 0 -22 -7 -29 -15 -17 -21 -8 -20 168 15 83 17 153
30 157 30 3 0 3 4 0 10 -3 6 -28 10 -54 10 -27 0 -53 6 -59 13 -9 11 -29 108
-87 422 -14 77 -30 161 -36 187 -13 59 -1 83 54 109 23 10 40 19 37 20 -3 0
-12 2 -20 3 -8 2 -50 -5 -93 -14z"/>
<path d="M5516 1673 c-3 -7 0 -13 7 -13 35 0 89 -24 117 -53 l32 -32 -8 -260
c-4 -143 -8 -271 -9 -285 -1 -14 -3 -35 -4 -48 -2 -34 -44 -72 -80 -72 -16 0
-33 -5 -36 -10 -4 -6 8 -10 27 -11 18 0 82 -3 142 -5 74 -4 106 -3 102 5 -4 5
-12 8 -19 6 -21 -8 -77 33 -78 57 -1 23 2 186 6 373 2 55 3 117 4 138 l1 38
52 -68 c29 -37 112 -146 186 -241 73 -96 161 -209 194 -253 61 -80 76 -95 84
-87 2 3 7 112 10 244 5 201 9 369 13 471 1 32 39 63 78 63 40 0 45 20 6 21
-16 0 -44 2 -63 4 -158 15 -180 15 -180 0 0 -10 10 -15 29 -15 16 0 39 -9 52
-19 24 -19 24 -22 23 -183 -2 -129 -9 -345 -13 -367 -1 -2 -27 32 -59 75 -77
104 -273 370 -341 462 -46 62 -57 72 -84 73 -18 0 -67 1 -109 3 -56 1 -79 -2
-82 -11z"/>
</g>
</svg>
